<svg xmlns="http://www.w3.org/2000/svg" viewBox="0 0 1434.29 307.65"><defs><style>.cls-1{fill:#303437;}.cls-2,.cls-3{fill:#f15b40;}.cls-3{fill-rule:evenodd;}</style></defs><g id="Text"><path class="cls-1" d="M.27,91.4H37.79L77.74,195.1,118,91.4h36.6L93,240.85H61.88Z"/><path class="cls-1" d="M226.39,244.21a76.75,76.75,0,0,1-29.74-5.64,69.37,69.37,0,0,1-23.48-15.86,73.72,73.72,0,0,1-15.56-24.4,87.63,87.63,0,0,1-.15-61.46,74.75,74.75,0,0,1,15.1-24.25,69.1,69.1,0,0,1,22.72-16A70.19,70.19,0,0,1,224,90.79,67.36,67.36,0,0,1,252,96.59a65.14,65.14,0,0,1,22,16,75.27,75.27,0,0,1,14.33,24.1,84.17,84.17,0,0,1,5.19,29.73c0,2-.11,4.17-.31,6.41H170.57v.3A54.52,54.52,0,0,0,187.65,212a57.2,57.2,0,0,0,17.69,11.29,55.94,55.94,0,0,0,21.35,4.11,81.43,81.43,0,0,0,30.2-5.79A110.09,110.09,0,0,0,285,205.17V225.3a100.86,100.86,0,0,1-27.15,13.88A97.87,97.87,0,0,1,226.39,244.21ZM223.64,107a48.67,48.67,0,0,0-20,4.12,53.11,53.11,0,0,0-16.32,11.13,59.91,59.91,0,0,0-11.44,16,49.44,49.44,0,0,0-5,19.07h104a62,62,0,0,0-5-20,52.44,52.44,0,0,0-10.83-16,48.74,48.74,0,0,0-15.86-10.52A50.28,50.28,0,0,0,223.64,107Z"/><path class="cls-1" d="M348.07,27.35v213.5h-18.3V27.35Z"/><path class="cls-1" d="M540.67,167.35a77.07,77.07,0,0,1-21.8,54.44,73.2,73.2,0,0,1-24.25,16.47,79.59,79.59,0,0,1-60.39,0A73.1,73.1,0,0,1,410,221.79a79.2,79.2,0,0,1-16-84.33,75.31,75.31,0,0,1,16-24.4,74.55,74.55,0,0,1,24.25-16.32,79.59,79.59,0,0,1,60.39,0,73.92,73.92,0,0,1,40.26,40.72A77.57,77.57,0,0,1,540.67,167.35Zm-18.6,0a61.63,61.63,0,0,0-4.42-23.18,59,59,0,0,0-12.2-19.06,58.31,58.31,0,0,0-18.3-12.81,57,57,0,0,0-45.45,0,58.31,58.31,0,0,0-18.3,12.81,59,59,0,0,0-12.2,19.06,61.44,61.44,0,0,0-4.42,23.18,62.19,62.19,0,0,0,4.42,23.48,59.07,59.07,0,0,0,12.2,19.07,58.31,58.31,0,0,0,18.3,12.81,57.07,57.07,0,0,0,45.45,0,58.31,58.31,0,0,0,18.3-12.81,59.07,59.07,0,0,0,12.2-19.07A62.39,62.39,0,0,0,522.07,167.35Z"/><path class="cls-1" d="M570.63,167.35a77.57,77.57,0,0,1,5.79-29.89,76.61,76.61,0,0,1,15.87-24.4,72.71,72.71,0,0,1,24.09-16.32,77.42,77.42,0,0,1,30.5-5.95,73,73,0,0,1,22.87,3.51,75.47,75.47,0,0,1,19.83,9.91v18.61q-19.22-14.94-41.79-14.95a58.26,58.26,0,0,0-23.18,4.58,57.5,57.5,0,0,0-31,31.57,63.65,63.65,0,0,0,0,46.66A57.73,57.73,0,0,0,606,209.59a59.51,59.51,0,0,0,18.6,12.81,56.5,56.5,0,0,0,23.18,4.73,60.62,60.62,0,0,0,22.88-4.42,101.77,101.77,0,0,0,19.83-10.53v18.91a92.45,92.45,0,0,1-20.59,9.61,73.26,73.26,0,0,1-22.72,3.51,78,78,0,0,1-30.81-6,74.13,74.13,0,0,1-24.25-16.32,73.25,73.25,0,0,1-15.86-24.4A80.14,80.14,0,0,1,570.63,167.35Z"/><path class="cls-2" d="M765.9,47.79a21.6,21.6,0,0,1-22,21.65A20.81,20.81,0,0,1,728.69,63a20.82,20.82,0,0,1-6.41-15.25,21.19,21.19,0,0,1,6.41-15.56,21.73,21.73,0,0,1,31,.16A21.61,21.61,0,0,1,765.9,47.79Z"/><rect class="cls-1" x="726.55" y="91.4" width="35.38" height="149.45"/><path class="cls-1" d="M853.35,206.54q5.64,5.66,17.54,5.64a37.07,37.07,0,0,0,8.69-1.06,21.68,21.68,0,0,0,7.78-3.51V239a40.33,40.33,0,0,1-11,4,72.8,72.8,0,0,1-15.86,1.52q-22.57,0-35.23-13.11t-12.66-36.6V121.29H786.1v-4.88l60.69-63.74h.92V91.4h39.65v29.89H847.71v67.1Q847.71,200.9,853.35,206.54Z"/><path class="cls-1" d="M970.08,266.78a140.68,140.68,0,0,1-9.3,18.76,57.61,57.61,0,0,1-10.07,12.65,34.7,34.7,0,0,1-11.59,7.17,40,40,0,0,1-13.87,2.29,37.18,37.18,0,0,1-7.78-.76,41.59,41.59,0,0,1-6.56-2V288.13a25.73,25.73,0,0,0,6,2,35,35,0,0,0,7.47.77,22.43,22.43,0,0,0,16.32-6.41q6.55-6.41,12.66-21.35l10.37-25.32L903.29,94.15h19.82l50,122.61,49.72-122.61h19.21Z"/><path class="cls-1" d="M1043.7,155.71h60.2v16.77h-60.2Z"/><path class="cls-1" d="M1202.42,244.21a76.75,76.75,0,0,1-29.74-5.64,69.37,69.37,0,0,1-23.48-15.86,73.72,73.72,0,0,1-15.56-24.4,87.63,87.63,0,0,1-.15-61.46,74.75,74.75,0,0,1,15.1-24.25,69.1,69.1,0,0,1,22.72-16,70.19,70.19,0,0,1,28.67-5.8,67.36,67.36,0,0,1,28.06,5.8,65.14,65.14,0,0,1,22,16,75.27,75.27,0,0,1,14.33,24.1,84.17,84.17,0,0,1,5.19,29.73c0,2-.11,4.17-.31,6.41H1146.6v.3A54.52,54.52,0,0,0,1163.68,212a57.2,57.2,0,0,0,17.69,11.29,55.94,55.94,0,0,0,21.35,4.11,81.43,81.43,0,0,0,30.2-5.79A110.09,110.09,0,0,0,1261,205.17V225.3a100.86,100.86,0,0,1-27.15,13.88A97.87,97.87,0,0,1,1202.42,244.21ZM1199.67,107a48.67,48.67,0,0,0-20,4.12,53.11,53.11,0,0,0-16.32,11.13,59.91,59.91,0,0,0-11.44,16,49.44,49.44,0,0,0-5,19.07h104a62,62,0,0,0-5-20,52.44,52.44,0,0,0-10.83-16,48.74,48.74,0,0,0-15.86-10.52A50.28,50.28,0,0,0,1199.67,107Z"/><path class="cls-1" d="M1434.29,240.85H1416V215.54A56.07,56.07,0,0,1,1396.16,236q-13.11,8.24-31.72,8.24a64.84,64.84,0,0,1-24.86-4.58,52.7,52.7,0,0,1-18.91-13,56.55,56.55,0,0,1-11.89-20.43,82.26,82.26,0,0,1-4.12-26.69V94.15H1323v83.26q0,22.88,11.9,36.45t33.24,13.57a45.08,45.08,0,0,0,19.22-4.11,45.77,45.77,0,0,0,15.25-11.44,52.71,52.71,0,0,0,9.91-17.08,61.75,61.75,0,0,0,3.51-21.05V94.15h18.3Z"/></g><g id="Layer_5" data-name="Layer 5"><path class="cls-3" d="M0,37.61H92.56v29.5H0Zm156.35,29.5H92.56V0"/></g></svg>